HIERARCHY
ROOT Hips
{
  OFFSET 0 0.240689 0
  CHANNELS 6 Xposition Yposition Zposition Zrotation Xrotation Yrotation
  JOINT Bip01_Spine0
  {
    OFFSET 0 -24.7459 49.7988
    CHANNELS 6 Xposition Yposition Zposition Zrotation Xrotation Yrotation
    JOINT Bip01_Pelvis
    {
      OFFSET 0 0 0
      CHANNELS 6 Xposition Yposition Zposition Zrotation Xrotation Yrotation
      JOINT Bip01_Spine0_Tail
      {
        OFFSET -6.47486 -3.86022 0
        CHANNELS 6 Xposition Yposition Zposition Zrotation Xrotation Yrotation
        JOINT Bip01_Spine0_Tail1
        {
          OFFSET 10.3837 -0.00825882 0
          CHANNELS 6 Xposition Yposition Zposition Zrotation Xrotation Yrotation
          JOINT Bip01_Spine0_Tail2
          {
            OFFSET 10.3837 -0.00826263 0
            CHANNELS 6 Xposition Yposition Zposition Zrotation Xrotation Yrotation
            JOINT Bip01_Spine0_Tail3
            {
              OFFSET 10.3837 -0.00825882 0
              CHANNELS 6 Xposition Yposition Zposition Zrotation Xrotation Yrotation
              JOINT Bip01_Spine0_Tail4
              {
                OFFSET 10.3837 -0.00826263 0
                CHANNELS 6 Xposition Yposition Zposition Zrotation Xrotation Yrotation
                End Site
                {
                  OFFSET 0 0 0
                }
              }
            }
          }
        }
      }
      JOINT Bip01_R_Thigh
      {
        OFFSET 0 -1.52588e-005 -8.75617
        CHANNELS 6 Xposition Yposition Zposition Zrotation Xrotation Yrotation
        JOINT Bip01_R_Calf
        {
          OFFSET 19.7638 0 0
          CHANNELS 6 Xposition Yposition Zposition Zrotation Xrotation Yrotation
          JOINT Bip01_R_Foot
          {
            OFFSET 18.6534 0 0
            CHANNELS 6 Xposition Yposition Zposition Zrotation Xrotation Yrotation
            JOINT Bip01_R_Toe0
            {
              OFFSET 5.09145 13.9567 0
              CHANNELS 6 Xposition Yposition Zposition Zrotation Xrotation Yrotation
              JOINT Bip01_R_Toe01
              {
                OFFSET 4.28803 0 0
                CHANNELS 6 Xposition Yposition Zposition Zrotation Xrotation Yrotation
                JOINT Bip01_R_Toe02
                {
                  OFFSET 3.85801 0 0
                  CHANNELS 6 Xposition Yposition Zposition Zrotation Xrotation Yrotation
                  End Site
                  {
                    OFFSET 0 0 0
                  }
                }
              }
            }
          }
        }
      }
      JOINT Bip01_L_Thigh
      {
        OFFSET 0 1.52588e-005 8.75617
        CHANNELS 6 Xposition Yposition Zposition Zrotation Xrotation Yrotation
        JOINT Bip01_L_Calf
        {
          OFFSET 19.7638 0 0
          CHANNELS 6 Xposition Yposition Zposition Zrotation Xrotation Yrotation
          JOINT Bip01_L_Foot
          {
            OFFSET 18.6534 0 0
            CHANNELS 6 Xposition Yposition Zposition Zrotation Xrotation Yrotation
            JOINT Bip01_L_Toe0
            {
              OFFSET 5.09144 13.9567 0
              CHANNELS 6 Xposition Yposition Zposition Zrotation Xrotation Yrotation
              JOINT Bip01_L_Toe01
              {
                OFFSET 4.28802 0 0
                CHANNELS 6 Xposition Yposition Zposition Zrotation Xrotation Yrotation
                JOINT Bip01_L_Toe02
                {
                  OFFSET 3.85801 0 0
                  CHANNELS 6 Xposition Yposition Zposition Zrotation Xrotation Yrotation
                  End Site
                  {
                    OFFSET 0 0 0
                  }
                }
              }
            }
          }
        }
      }
      JOINT Bip01_Spine
      {
        OFFSET 9.14835 -0.00640869 -1.1e-005
        CHANNELS 6 Xposition Yposition Zposition Zrotation Xrotation Yrotation
        JOINT Bip01_Spine1
        {
          OFFSET 8.04366 -0.00638199 0
          CHANNELS 6 Xposition Yposition Zposition Zrotation Xrotation Yrotation
          JOINT Bip01_Spine2
          {
            OFFSET 8.04367 -0.00639343 0
            CHANNELS 6 Xposition Yposition Zposition Zrotation Xrotation Yrotation
            JOINT Bip01_Spine3
            {
              OFFSET 8.04304 -0.00831222 0
              CHANNELS 6 Xposition Yposition Zposition Zrotation Xrotation Yrotation
              JOINT Bip01_Neck
              {
                OFFSET 10.6685 1.06813 0
                CHANNELS 6 Xposition Yposition Zposition Zrotation Xrotation Yrotation
                JOINT Bip01_R_Clavicle
                {
                  OFFSET -3.21661 -4.89635 -9.04802
                  CHANNELS 6 Xposition Yposition Zposition Zrotation Xrotation Yrotation
                  JOINT Bip01_R_UpperArm
                  {
                    OFFSET 19.0492 0 0
                    CHANNELS 6 Xposition Yposition Zposition Zrotation Xrotation Yrotation
                    JOINT Bip01_R_Forearm
                    {
                      OFFSET 10.3706 0 0
                      CHANNELS 6 Xposition Yposition Zposition Zrotation Xrotation Yrotation
                      JOINT Bip01_R_Hand
                      {
                        OFFSET 22.8632 0 0
                        CHANNELS 6 Xposition Yposition Zposition Zrotation Xrotation Yrotation
                        JOINT Bip01_R_Finger0
                        {
                          OFFSET 6.48259 0.103651 0.504496
                          CHANNELS 6 Xposition Yposition Zposition Zrotation Xrotation Yrotation
                          JOINT Bip01_R_Finger01
                          {
                            OFFSET 3.66847 0 0
                            CHANNELS 6 Xposition Yposition Zposition Zrotation Xrotation Yrotation
                            End Site
                            {
                              OFFSET 0 0 0
                            }
                          }
                        }
                      }
                    }
                  }
                }
                JOINT Bip01_L_Clavicle
                {
                  OFFSET -3.21661 -4.89641 9.04797
                  CHANNELS 6 Xposition Yposition Zposition Zrotation Xrotation Yrotation
                  JOINT Bip01_L_UpperArm
                  {
                    OFFSET 19.0492 0 0
                    CHANNELS 6 Xposition Yposition Zposition Zrotation Xrotation Yrotation
                    JOINT Bip01_L_Forearm
                    {
                      OFFSET 10.3706 0 0
                      CHANNELS 6 Xposition Yposition Zposition Zrotation Xrotation Yrotation
                      JOINT Bip01_L_Hand
                      {
                        OFFSET 22.8631 0 0
                        CHANNELS 6 Xposition Yposition Zposition Zrotation Xrotation Yrotation
                        JOINT Bip01_L_Finger0
                        {
                          OFFSET 6.48257 0.103655 -0.504492
                          CHANNELS 6 Xposition Yposition Zposition Zrotation Xrotation Yrotation
                          JOINT Bip01_L_Finger01
                          {
                            OFFSET 3.66844 0 0
                            CHANNELS 6 Xposition Yposition Zposition Zrotation Xrotation Yrotation
                            End Site
                            {
                              OFFSET 0 0 0
                            }
                          }
                        }
                      }
                    }
                  }
                }
                JOINT Bip01_Neck1
                {
                  OFFSET 7.52459 -0.00656509 0
                  CHANNELS 6 Xposition Yposition Zposition Zrotation Xrotation Yrotation
                  JOINT Bip01_Neck2
                  {
                    OFFSET 8.4783 -0.00588226 0
                    CHANNELS 6 Xposition Yposition Zposition Zrotation Xrotation Yrotation
                    JOINT Bip01_Head
                    {
                      OFFSET 8.41606 0 0
                      CHANNELS 6 Xposition Yposition Zposition Zrotation Xrotation Yrotation
                      JOINT EyesBlue
                      {
                        OFFSET 0 0 0
                        CHANNELS 6 Xposition Yposition Zposition Zrotation Xrotation Yrotation
                        JOINT EyesBlue_2
                        {
                          OFFSET 0 -0.500007 0
                          CHANNELS 6 Xposition Yposition Zposition Zrotation Xrotation Yrotation
                          End Site
                          {
                            OFFSET 0 0 0
                          }
                        }
                      }
                      JOINT Bip01_Head2_Eyeleds
                      {
                        OFFSET 6.52751 7.61746 2.2e-005
                        CHANNELS 6 Xposition Yposition Zposition Zrotation Xrotation Yrotation
                        End Site
                        {
                          OFFSET 0 0 0
                        }
                      }
                      JOINT Bip01_Head_Muzzle
                      {
                        OFFSET 2.88628 13.9448 3.88994
                        CHANNELS 6 Xposition Yposition Zposition Zrotation Xrotation Yrotation
                        End Site
                        {
                          OFFSET 0 0 0
                        }
                      }
                      JOINT Bip01_Head1_Jaw
                      {
                        OFFSET 0.271065 1.32405 0
                        CHANNELS 6 Xposition Yposition Zposition Zrotation Xrotation Yrotation
                        JOINT _Bip01_Head11_TungeControler
                        {
                          OFFSET 4.61616 5.82872 0
                          CHANNELS 6 Xposition Yposition Zposition Zrotation Xrotation Yrotation
                          JOINT _Bip01_Ponytail3_tunge
                          {
                            OFFSET 5.17785 2.98805 0
                            CHANNELS 6 Xposition Yposition Zposition Zrotation Xrotation Yrotation
                            JOINT Bip01_Ponytail31
                            {
                              OFFSET 5.57569 0 0
                              CHANNELS 6 Xposition Yposition Zposition Zrotation Xrotation Yrotation
                              JOINT Bip01_Ponytail32
                              {
                                OFFSET 2.93165 0 0
                                CHANNELS 6 Xposition Yposition Zposition Zrotation Xrotation Yrotation
                                JOINT Bip01_Ponytail3Nub
                                {
                                  OFFSET 3.30155 0 0
                                  CHANNELS 6 Xposition Yposition Zposition Zrotation Xrotation Yrotation
                                  End Site
                                  {
                                    OFFSET 0 0 0
                                  }
                                }
                              }
                            }
                          }
                        }
                        JOINT Bip01_Head_JawNub
                        {
                          OFFSET 15.5776 -0.000389099 0
                          CHANNELS 6 Xposition Yposition Zposition Zrotation Xrotation Yrotation
                          End Site
                          {
                            OFFSET 0 0 0
                          }
                        }
                      }
                      JOINT Bip01_Ponytail2
                      {
                        OFFSET 9.40334 1.03973 -6.51764
                        CHANNELS 6 Xposition Yposition Zposition Zrotation Xrotation Yrotation
                        JOINT Bip01_Ponytail21
                        {
                          OFFSET 2.77018 -0.00640106 1.33514e-005
                          CHANNELS 6 Xposition Yposition Zposition Zrotation Xrotation Yrotation
                          End Site
                          {
                            OFFSET 0 0 0
                          }
                        }
                      }
                      JOINT Bip01_Ponytail1
                      {
                        OFFSET 9.40368 1.03969 6.51768
                        CHANNELS 6 Xposition Yposition Zposition Zrotation Xrotation Yrotation
                        JOINT Bip01_Ponytail11
                        {
                          OFFSET 2.77018 -0.00640487 0
                          CHANNELS 6 Xposition Yposition Zposition Zrotation Xrotation Yrotation
                          End Site
                          {
                            OFFSET 0 0 0
                          }
                        }
                      }
                    }
                  }
                }
              }
            }
          }
        }
      }
    }
  }
}
MOTION
Frames:	4
Frame Time:	0.0333333
0 0 0 -0 -90 -0 0.000814 -28.701 30.1603 90.0002 0.000164026 49.962 0 -1.0842e-019 1e-006 -90 1.77103e-005 -79.0001 -6.3603 -3.85823 -1.23556 174.09 -6.70023 -0.274721 10.3839 -0.008087 0.001112 4.63257 -6.88397 -4.13737 10.3829 -0.00811 -0.000816 -2.54624 6.40998 7.17096 10.3839 -0.007934 0.001579 4.8777 -10.8305 9.98322 10.3862 -0.007556 0.000688 21.4986 -4.34263 7.89151 1.1e-005 -1.1e-005 -8.75617 -101.563 2.78876 178.294 19.7638 -1e-006 -1e-006 -91.8284 3.2639e-005 -0.00209371 18.6534 -1e-006 0 -48.5835 1.29767 -3.69855 5.09143 13.9567 1.44104e-006 70.3996 -2.79319 -4.14806 4.288 -1e-006 -6.30607e-014 20.0011 1.28073e-005 4.69301e-006 3.85799 3e-006 1.89182e-013 -45 -9.4248e-006 9.62109e-006 -1.3e-005 1.5e-005 8.75617 -157.603 5.57156 -161.04 19.7638 7e-006 -3.55271e-015 -133.828 0.00119294 -0.00296841 18.6534 3e-006 2.66454e-014 71.4233 3.57758 -1.60617 5.09143 13.9567 -8.52476e-007 40.9837 0.392478 4.98582 4.288 -1e-006 1e-006 -25.9993 0.00151545 0.0024431 3.85799 8.88179e-014 -1e-006 -45 -9.3853e-006 -8.30552e-006 8.98013 -0.006332 1.7457 0.0467417 -0.00776291 -10.9989 8.04366 -0.006393 3e-006 -1.59028e-014 1.00179e-005 8.17601e-015 8.04443 -0.005985 -0.001932 7.97643 18.502 -0.0151589 8.04304 -0.008323 -5.48909e-010 -4.29873 2.52926e-005 2.70185e-005 10.6685 1.06813 7.06108e-006 -13.2811 -2.45392e-005 3.31178e-005 -2.46762 -5.31289 -9.04801 -158.384 -67.4171 125.5 19.0492 5.32907e-015 7.10543e-015 86.3732 6.50374 -92.7684 10.3705 1.42109e-014 -3.55271e-015 -40.4028 0.0010297 0.0022249 22.8631 -1e-006 5.86198e-014 23.1594 3.95073 -18.6831 6.48256 0.103653 0.504495 46.6915 -12.6302 9.05575 3.66844 -1e-006 1.13687e-013 40.107 5.97116e-005 1.19391e-005 -2.46761 -5.31294 9.04798 -158.383 74.9179 -141.999 19.0492 0 7.10543e-015 95.415 -57.3147 120.293 10.3706 -3e-006 5.54223e-013 -102.512 -0.000396989 0.00359551 22.8631 3e-006 4.47642e-013 29.6582 -27.3291 14.8338 6.48256 0.103653 -0.504494 15.8776 15.437 -1.40529 3.66843 3e-006 -2.06057e-013 40.1071 9.19762e-007 -3.82449e-006 7.52507 -0.006542 0.00012 -9.00579 -0.399498 -1.95872 8.47605 -0.006572 2.59998e-005 8.50008 0.00102563 0.000883707 8.41605 -1e-006 -1e-006 -56.8562 -34.3013 -18.5579 2.98428e-013 3e-006 -2e-006 -23.1098 1.37701e-015 90 2.87608e-006 -0.500002 -1.92696e-006 180 90 -90 6.5275 7.61746 2.35193e-005 -99.049 1.52588e-005 -180 2.88629 13.9448 3.88994 -23.1098 1.37701e-015 90 0.271065 1.32405 4.09026e-006 -71.7785 7.62939e-005 -180 4.61616 5.82873 -7.63284e-006 -120.289 9.91872e-006 -5.37156e-006 5.17783 2.98805 2.64635e-006 133.74 1.20458e-006 4.89932e-006 5.57567 -7e-006 -2e-006 1.83152 -1.29122e-006 -1.11346e-007 2.93164 -1.42109e-014 -2e-006 -17.65 1.19349e-005 1.44727e-006 3.30154 -7e-006 5e-006 -26.1943 1.85734e-005 -1.43642e-005 15.5776 -0.000389 -5.99996e-006 -8.82781e-032 1.59028e-015 3.18055e-015 9.40332 1.03973 -6.51764 -19.0867 17.2453 20.3009 2.77017 -0.006408 1.49986e-005 2.43503 9.52774e-006 -1.82293e-005 9.40367 1.03968 6.51768 -19.0868 -17.2453 -20.3008 2.77017 -0.006401 -5.99982e-006 2.43503 1.01699e-005 -1.49236e-007 
0 0 0 -90 -89.9258 -90 0.000814 -28.701 30.4191 90.0002 0.000164026 49.962 0 0 1e-006 -90 1.98056e-005 -83.9374 -6.43632 -3.85823 -0.682986 173.578 -4.70771 -3.55937 10.3839 -0.008087 0.001112 4.66702 -5.05108 -4.37551 10.3829 -0.00811 -0.000816 -2.05878 4.73171 3.88798 10.3839 -0.007934 0.001579 4.29365 -7.98506 5.92847 10.3862 -0.007556 0.000688 21.3036 -3.1973 4.44193 1.1e-005 -1.1e-005 -8.75617 -102.723 -1.98889 177.244 19.7638 -1e-006 -1e-006 -97.5056 0.000136472 -0.00209379 18.6534 -1e-006 0 -49.3783 1.6323 -3.5589 5.09143 13.9567 -2.65129e-006 70.204 -2.7784 -4.15733 4.288 -1e-006 -6.92779e-014 19.6971 1.29095e-005 4.68683e-006 3.85799 3e-006 1.93623e-013 -45 -1.00895e-005 9.71503e-006 -1.3e-005 1.5e-005 8.75617 -146.262 6.18933 -166.516 19.7638 7e-006 -5.32907e-015 -117.907 0.000707755 -0.00298348 18.6534 3e-006 2.13163e-014 47.2622 3.87918 -0.31452 5.09143 13.9567 -9.52583e-007 62.5058 2.19783 4.4935 4.288 -1e-006 1e-006 -10.8371 0.00209292 0.00195795 3.85799 5.68435e-014 -1e-006 -41.6632 -2.00568e-005 -2.53014e-006 9.08758 -0.006332 0.965172 0.0472092 -0.0037086 -6.06186 8.04366 -0.006393 3e-006 6.36112e-015 1.00179e-005 -5.08889e-014 8.04443 -0.005985 -0.001932 7.97613 14.2802 -0.0106503 8.04304 -0.008323 -4.54714e-010 -4.29873 2.52055e-005 2.69699e-005 10.6685 1.06813 7.05065e-006 -13.2811 -2.46998e-005 3.29892e-005 -2.46762 -5.31289 -9.04801 -158.426 -68.4476 131.278 19.0492 7.10543e-015 -7.10543e-015 82.0867 -27.135 -90.9198 10.3705 0 1.77636e-015 -92.3662 -4.28044e-005 0.00222241 22.8631 -1e-006 8.88179e-014 33.7216 3.82573 -19.5567 6.48256 0.103653 0.504495 42.5894 -13.2339 8.13831 3.66844 -1e-006 9.9476e-014 40.107 2.89196e-005 1.17514e-005 -2.46761 -5.31294 9.04798 -158.393 74.1485 -140.96 19.0492 0 0 107.556 -69.1917 127.408 10.3706 -3e-006 6.32383e-013 -77.8973 0.000372067 0.00359294 22.8631 3e-006 4.44089e-013 -3.93202 -18.6246 13.0108 6.48256 0.103653 -0.504494 10.8404 15.4991 -0.0610583 3.66843 3e-006 2.34479e-013 40.1071 5.02379e-006 -9.50816e-006 7.52507 -0.006542 0.00012 -9.39778 -0.386141 -1.96106 8.47605 -0.006572 2.59998e-005 8.10857 0.00101965 0.000890758 8.41605 -1e-006 -1e-006 -53.3802 -33.0451 -13.607 1.84741e-013 3e-006 -2e-006 -23.1098 1.37701e-015 90 2.8798e-006 -0.500002 -1.92806e-006 180 90 -90 6.5275 7.61746 2.35065e-005 -99.2303 1.52588e-005 -180 2.88629 13.9448 3.88994 -23.1098 1.37701e-015 90 0.271065 1.32405 4.08804e-006 -71.7785 7.62939e-005 -180 4.61616 5.82873 -7.7628e-006 -120.289 1.05355e-005 -6.47466e-006 5.17783 2.98805 2.64778e-006 133.74 2.81893e-006 4.87947e-006 5.57567 -7e-006 -2e-006 1.83152 -1.32701e-006 -5.91433e-008 2.93164 -2.84217e-014 -2e-006 -17.65 1.15498e-005 9.63143e-007 3.30154 -7e-006 5e-006 -26.1943 1.75454e-005 -1.48659e-005 15.5776 -0.000389 -5.99995e-006 1.59028e-015 0 3.18055e-015 9.40332 1.03973 -6.51764 -19.0867 17.2453 20.3009 2.77017 -0.006408 1.49987e-005 2.43503 9.5103e-006 -1.81938e-005 9.40367 1.03968 6.51768 -19.0868 -17.2453 -20.3008 2.77017 -0.006401 -5.99985e-006 2.43503 1.01647e-005 -1.60464e-007 
0 0 0 -90 -89.7067 -90 0.000814 -28.701 30.6897 90.0002 0.000164026 49.962 0 0 1e-006 -89.9998 -1.97727e-005 -89.0875 -6.4675 -3.85823 -0.102594 173.304 -2.63666 -7.08911 10.3839 -0.008087 0.001112 4.70612 -3.18933 -4.70258 10.3829 -0.00811 -0.000816 -1.76363 2.98414 0.501367 10.3839 -0.007934 0.001579 3.91119 -5.05583 1.77808 10.3862 -0.007556 0.000688 21.1764 -2.02333 0.859771 1.1e-005 -1.1e-005 -8.75617 -103.765 -6.94487 175.982 19.7638 -1e-006 -1e-006 -102.864 0.000235589 -0.00209378 18.6534 -1e-006 -1.77636e-015 -49.7365 1.92219 -3.41013 5.09143 13.9567 -2.10229e-006 69.9364 -2.7585 -4.1701 4.288 -1e-006 -7.54952e-014 19.2806 1.30062e-005 4.71162e-006 3.85799 3e-006 2.02505e-013 -45 -1.08655e-005 9.81625e-006 -1.3e-005 1.5e-005 8.75617 -135.367 4.87109 -171.48 19.7638 7e-006 -7.10543e-015 -101.619 0.000280829 -0.00297227 18.6534 3e-006 1.06581e-014 22.2146 3.74201 0.979051 5.09143 13.9567 -1.00345e-006 91.7749 4.11415 2.84602 4.288 -1e-006 1e-006 9.68407 0.00266468 0.00109771 3.85799 -1.03029e-013 -1e-006 -35.1823 -2.5108e-005 -1.40745e-005 9.13167 -0.006332 0.145386 0.0473515 0.000543754 -0.912203 8.04366 -0.006393 3e-006 -3.18055e-015 1.00179e-005 -1.98785e-016 8.04443 -0.005985 -0.001932 7.97564 9.60505 -0.00683676 8.04304 -0.008323 -3.21077e-010 -4.29873 2.50841e-005 2.6901e-005 10.6685 1.06813 7.03581e-006 -13.2811 -2.49191e-005 3.28064e-005 -2.46762 -5.31289 -9.04801 -158.494 -69.5191 137.596 19.0492 7.10543e-015 -7.10543e-015 81.1661 -36.1209 -90.6793 10.3705 -3.55271e-015 3.55271e-015 -120.794 -0.00057449 0.00223982 22.8631 -1e-006 1.49214e-013 46.1487 3.11115 -20.4745 6.48256 0.103653 0.504495 38.2955 -13.7938 7.13462 3.66844 -1e-006 1.06581e-013 40.107 1.8466e-005 1.17476e-005 -2.46761 -5.31294 9.04798 -158.403 73.3802 -139.857 19.0492 -7.10543e-015 -1.42109e-014 113.094 -75.589 128.541 10.3706 -3e-006 5.86198e-013 -60.5237 0.000958054 0.00358164 22.8631 3e-006 4.583e-013 -25.1471 -10.856 15.5131 6.48256 0.103653 -0.504494 6.53352 15.4619 1.08901 3.66843 3e-006 1.77636e-013 40.1071 4.43858e-006 -8.61381e-006 7.52507 -0.006542 0.00012 -9.81014 -0.37204 -1.96362 8.47605 -0.006572 2.59999e-005 7.69608 0.00101331 0.000898154 8.41605 -1e-006 -1e-006 -49.8023 -31.4401 -8.30117 1.27898e-013 3e-006 -2e-006 -23.1098 1.37701e-015 90 2.88322e-006 -0.500002 -1.92924e-006 180 90 -90 6.5275 7.61746 2.34742e-005 -99.4115 3.24611e-014 -180 2.88629 13.9448 3.88994 -23.1098 1.37701e-015 90 0.271065 1.32405 4.08243e-006 -71.7785 6.10352e-005 -180 4.61616 5.82873 -7.87225e-006 -120.289 1.08396e-005 -7.40366e-006 5.17783 2.98805 2.66023e-006 133.74 4.40738e-006 4.70709e-006 5.57567 -7e-006 -2e-006 1.83152 -1.31816e-006 -3.10335e-009 2.93164 -4.26326e-014 -2e-006 -17.65 1.07733e-005 4.29095e-007 3.30154 -7e-006 5e-006 -26.1943 1.64797e-005 -1.5264e-005 15.5776 -0.000389 -5.99994e-006 -4.77083e-015 0 3.18055e-015 9.40332 1.03973 -6.51764 -19.0867 17.2453 20.3009 2.77017 -0.006408 1.49988e-005 2.43503 9.49123e-006 -1.81522e-005 9.40367 1.03968 6.51768 -19.0868 -17.2453 -20.3008 2.77017 -0.006401 -5.99987e-006 2.43503 1.01551e-005 -1.7079e-007 
0 0 0 -90 -89.3475 -90 0.000814 -28.701 30.9647 90.0002 0.000164026 49.962 0 -1.11022e-016 1e-006 -89.9999 4.78702e-005 -93.8815 -6.45403 -3.85823 0.438037 173.305 -0.657469 -10.2067 10.3839 -0.008087 0.001112 4.75862 -1.39612 -4.91106 10.3829 -0.00811 -0.000816 -1.68217 1.28455 -2.63606 10.3839 -0.007934 0.001579 3.76072 -2.21262 -2.08082 10.3862 -0.007556 0.000688 21.1297 -0.886405 -2.47911 1.1e-005 -1.1e-005 -8.75617 -104.851 -11.5176 174.638 19.7638 -1e-006 -1e-006 -107.741 0.000328577 -0.0020931 18.6534 -1e-006 8.88178e-015 -49.1463 2.12274 -3.29191 5.09143 13.9567 -1.67485e-006 69.7567 -2.74509 -4.17862 4.288 -1e-006 -8.17124e-014 18.9987 1.30816e-005 4.71789e-006 3.85799 3e-006 2.11386e-013 -45 -1.14785e-005 9.90388e-006 -1.3e-005 1.5e-005 8.75617 -126.036 2.33954 -175.204 19.7638 7e-006 5.32907e-015 -90.3297 8.17278e-006 -0.00296795 18.6534 3e-006 5.32907e-015 0.752668 3.18541 2.14971 5.09143 13.9567 -1.03152e-006 105.709 4.67719 1.77282 4.288 -1e-006 1e-006 20.3746 0.00282796 0.000582198 3.85799 -4.4853e-014 -1e-006 -31.9098 -2.56294e-005 -1.1023e-005 9.11266 -0.006332 -0.618247 0.0472222 0.00450474 3.8818 8.04366 -0.006393 3e-006 -6.36111e-015 1.00179e-005 -1.98785e-016 8.04443 -0.005985 -0.001932 7.9751 4.7579 -0.00266984 8.04304 -0.008323 -1.57512e-010 -4.29873 2.49349e-005 2.68166e-005 10.6685 1.06813 7.01766e-006 -13.2811 -2.51837e-005 3.25827e-005 -2.46762 -5.31289 -9.04801 -158.44 -70.3777 141.888 19.0492 7.10543e-015 7.10543e-015 81.2146 -30.6926 -89.4406 10.3705 7.10543e-015 1.06581e-014 -132.703 -0.000844357 0.00223868 22.8631 -1e-006 2.62901e-013 51.9311 3.89469 -21.038 6.48256 0.103653 0.504495 34.6609 -14.2084 6.25427 3.66844 -1e-006 1.20792e-013 40.107 1.33526e-005 1.18082e-005 -2.46761 -5.31294 9.04798 -158.4 72.624 -138.859 19.0492 -3.55271e-015 -7.10543e-015 101.026 -77.1132 112.856 10.3706 -3e-006 3.90799e-013 -48.8134 0.00140179 0.0035459 22.8631 3e-006 4.65405e-013 -31.4555 -3.33328 19.6899 6.48256 0.103653 -0.504494 1.48065 15.3121 2.43053 3.66843 3e-006 7.10543e-015 40.1071 9.2281e-006 -6.67938e-006 7.52507 -0.006542 0.00012 -10.2344 -0.357505 -1.96622 8.47605 -0.006572 2.59999e-005 7.27196 0.00100673 0.000905713 8.41605 -1e-006 -1e-006 -46.366 -29.5555 -3.00013 2.84217e-014 3e-006 -2e-006 -23.1098 1.37701e-015 90 2.88591e-006 -0.500002 -1.93053e-006 180 90 -90 6.5275 7.61746 2.34218e-005 -99.5927 7.01671e-015 -180 2.88629 13.9448 3.88994 -23.1098 1.37701e-015 90 0.271065 1.32405 4.07331e-006 -71.7785 6.10352e-005 -180 4.61616 5.82873 -7.94508e-006 -120.289 1.07332e-005 -8.02183e-006 5.17783 2.98805 2.68461e-006 133.74 5.75699e-006 4.36935e-006 5.57567 -7e-006 -2e-006 1.83152 -1.25859e-006 5.03606e-008 2.93164 -5.68434e-014 -2e-006 -17.65 9.64867e-006 -9.59068e-008 3.30154 -7e-006 5e-006 -26.1943 1.54825e-005 -1.54959e-005 15.5776 -0.000389 -5.99994e-006 1.59028e-015 -7.95139e-016 3.18055e-015 9.40332 1.03973 -6.51764 -19.0867 17.2453 20.3009 2.77017 -0.006408 1.4999e-005 2.43503 9.47167e-006 -1.81075e-005 9.40367 1.03968 6.51768 -19.0868 -17.2453 -20.3008 2.77017 -0.006401 -5.9999e-006 2.43503 1.01412e-005 -1.78664e-007 
